<?xml version="1.0" encoding="UTF-8" standalone="no"?>
<!-- Created with Inkscape (http://www.inkscape.org/) -->

<svg
   width="85.481575mm"
   height="123.47222mm"
   viewBox="0 0 85.481575 123.47222"
   version="1.1"
   id="svg1"
   xml:space="preserve"
   xmlns="http://www.w3.org/2000/svg"
   xmlns:svg="http://www.w3.org/2000/svg"><defs
     id="defs1" /><g
     id="g1"
     transform="matrix(0.26458332,0,0,0.26458334,4.9379573e-6,0)"><g
       id="group-R5"><path
         id="path2"
         d="m 1884.63,807.691 h 403.84 V 134.629 H 134.586 v 673.062 h 403.887 c 74.281,0 134.586,60.301 134.586,134.629 v 1615.37 c 0,74.37 -60.305,134.63 -134.586,134.63 H 134.586 v 673.05 H 2288.47 v -673.05 h -403.84 c -74.37,0 -134.63,-60.26 -134.63,-134.63 V 942.32 c 0,-74.328 60.26,-134.629 134.63,-134.629 z M 2423.06,2557.69 V 3500 H 0 V 2557.69 H 538.473 V 942.32 H 0 V 0 h 2423.06 v 942.32 h -538.43 v 1615.37 h 538.43"
         style="fill:#13294b;fill-opacity:1;fill-rule:nonzero;stroke:none"
         transform="matrix(0.13333333,0,0,-0.13333333,0,466.66667)" /><path
         id="path3"
         d="m 1884.63,2692.32 h 403.84 v 673.05 H 134.586 v -673.05 h 403.887 c 74.281,0 134.586,-60.26 134.586,-134.63 V 942.32 c 0,-74.328 -60.305,-134.629 -134.586,-134.629 H 134.586 V 134.629 H 2288.47 v 673.062 h -403.84 c -74.37,0 -134.63,60.301 -134.63,134.629 v 1615.37 c 0,74.37 60.26,134.63 134.63,134.63"
         style="fill:#ff5f05;fill-opacity:1;fill-rule:nonzero;stroke:none"
         transform="matrix(0.13333333,0,0,-0.13333333,0,466.66667)" /></g></g></svg>
